<mxfile host="app.diagrams.net" agent="Mozilla/5.0 (Windows NT 10.0; Win64; x64) AppleWebKit/537.36 (KHTML, like Gecko) Chrome/138.0.0.0 Safari/537.36" version="28.2.3">
  <diagram name="PÃ¡gina-1" id="38uAZoapUSMVeGQ6MvgP">
    <mxGraphModel dx="786" dy="1674" grid="1" gridSize="10" guides="1" tooltips="1" connect="1" arrows="1" fold="1" page="1" pageScale="1" pageWidth="827" pageHeight="1169" math="0" shadow="0">
      <root>
        <mxCell id="0" />
        <mxCell id="1" parent="0" />
        <mxCell id="ev-j7c1m02h-P1FA38KH-1" value="CARRO" style="rounded=0;whiteSpace=wrap;html=1;" vertex="1" parent="1">
          <mxGeometry x="354" y="140" width="120" height="60" as="geometry" />
        </mxCell>
        <mxCell id="ev-j7c1m02h-P1FA38KH-2" value="Cor" style="ellipse;whiteSpace=wrap;html=1;" vertex="1" parent="1">
          <mxGeometry x="200" y="50" width="90" height="50" as="geometry" />
        </mxCell>
        <mxCell id="ev-j7c1m02h-P1FA38KH-3" value="Marca" style="ellipse;whiteSpace=wrap;html=1;" vertex="1" parent="1">
          <mxGeometry x="130" y="190" width="90" height="50" as="geometry" />
        </mxCell>
        <mxCell id="ev-j7c1m02h-P1FA38KH-4" value="Modelo" style="ellipse;whiteSpace=wrap;html=1;" vertex="1" parent="1">
          <mxGeometry x="200" y="240" width="80" height="40" as="geometry" />
        </mxCell>
        <mxCell id="ev-j7c1m02h-P1FA38KH-5" value="" style="endArrow=none;html=1;rounded=0;entryX=0.889;entryY=0.74;entryDx=0;entryDy=0;entryPerimeter=0;exitX=0;exitY=0;exitDx=0;exitDy=0;" edge="1" parent="1" source="ev-j7c1m02h-P1FA38KH-1" target="ev-j7c1m02h-P1FA38KH-2">
          <mxGeometry width="50" height="50" relative="1" as="geometry">
            <mxPoint x="310" y="140" as="sourcePoint" />
            <mxPoint x="360" y="90" as="targetPoint" />
          </mxGeometry>
        </mxCell>
        <mxCell id="ev-j7c1m02h-P1FA38KH-6" value="NumChassi" style="ellipse;whiteSpace=wrap;html=1;align=center;fontStyle=4;" vertex="1" parent="1">
          <mxGeometry x="130" y="140" width="100" height="40" as="geometry" />
        </mxCell>
        <mxCell id="ev-j7c1m02h-P1FA38KH-7" value="Versao" style="ellipse;whiteSpace=wrap;html=1;" vertex="1" parent="1">
          <mxGeometry x="264" y="270" width="90" height="50" as="geometry" />
        </mxCell>
        <mxCell id="ev-j7c1m02h-P1FA38KH-8" value="Combustivel" style="ellipse;whiteSpace=wrap;html=1;" vertex="1" parent="1">
          <mxGeometry x="366" y="280" width="96" height="50" as="geometry" />
        </mxCell>
        <mxCell id="ev-j7c1m02h-P1FA38KH-9" value="Eletrico" style="ellipse;whiteSpace=wrap;html=1;dashed=1;dashPattern=8 8;" vertex="1" parent="1">
          <mxGeometry x="474" y="285" width="80" height="45" as="geometry" />
        </mxCell>
        <mxCell id="ev-j7c1m02h-P1FA38KH-10" value="" style="endArrow=none;dashed=1;html=1;rounded=0;entryX=1;entryY=1;entryDx=0;entryDy=0;exitX=0.588;exitY=0.044;exitDx=0;exitDy=0;exitPerimeter=0;" edge="1" parent="1" source="ev-j7c1m02h-P1FA38KH-9" target="ev-j7c1m02h-P1FA38KH-1">
          <mxGeometry width="50" height="50" relative="1" as="geometry">
            <mxPoint x="480" y="290" as="sourcePoint" />
            <mxPoint x="530" y="240" as="targetPoint" />
          </mxGeometry>
        </mxCell>
        <mxCell id="ev-j7c1m02h-P1FA38KH-11" value="" style="endArrow=none;html=1;rounded=0;entryX=0;entryY=0.5;entryDx=0;entryDy=0;exitX=0.98;exitY=0.7;exitDx=0;exitDy=0;exitPerimeter=0;" edge="1" parent="1" source="ev-j7c1m02h-P1FA38KH-6" target="ev-j7c1m02h-P1FA38KH-1">
          <mxGeometry width="50" height="50" relative="1" as="geometry">
            <mxPoint x="290" y="210" as="sourcePoint" />
            <mxPoint x="340" y="160" as="targetPoint" />
          </mxGeometry>
        </mxCell>
        <mxCell id="ev-j7c1m02h-P1FA38KH-12" value="" style="endArrow=none;html=1;rounded=0;entryX=0;entryY=0.5;entryDx=0;entryDy=0;exitX=1;exitY=0.5;exitDx=0;exitDy=0;" edge="1" parent="1" source="ev-j7c1m02h-P1FA38KH-3" target="ev-j7c1m02h-P1FA38KH-1">
          <mxGeometry width="50" height="50" relative="1" as="geometry">
            <mxPoint x="280" y="240" as="sourcePoint" />
            <mxPoint x="330" y="190" as="targetPoint" />
          </mxGeometry>
        </mxCell>
        <mxCell id="ev-j7c1m02h-P1FA38KH-13" value="" style="endArrow=none;html=1;rounded=0;entryX=0;entryY=1;entryDx=0;entryDy=0;" edge="1" parent="1" source="ev-j7c1m02h-P1FA38KH-4" target="ev-j7c1m02h-P1FA38KH-1">
          <mxGeometry width="50" height="50" relative="1" as="geometry">
            <mxPoint x="290" y="250" as="sourcePoint" />
            <mxPoint x="340" y="200" as="targetPoint" />
          </mxGeometry>
        </mxCell>
        <mxCell id="ev-j7c1m02h-P1FA38KH-14" value="" style="endArrow=none;html=1;rounded=0;entryX=0.25;entryY=1;entryDx=0;entryDy=0;exitX=0.611;exitY=0;exitDx=0;exitDy=0;exitPerimeter=0;" edge="1" parent="1" source="ev-j7c1m02h-P1FA38KH-7" target="ev-j7c1m02h-P1FA38KH-1">
          <mxGeometry width="50" height="50" relative="1" as="geometry">
            <mxPoint x="330" y="260" as="sourcePoint" />
            <mxPoint x="380" y="210" as="targetPoint" />
          </mxGeometry>
        </mxCell>
        <mxCell id="ev-j7c1m02h-P1FA38KH-15" value="" style="endArrow=none;html=1;rounded=0;entryX=0.633;entryY=1;entryDx=0;entryDy=0;entryPerimeter=0;exitX=0.5;exitY=0;exitDx=0;exitDy=0;" edge="1" parent="1" source="ev-j7c1m02h-P1FA38KH-8" target="ev-j7c1m02h-P1FA38KH-1">
          <mxGeometry width="50" height="50" relative="1" as="geometry">
            <mxPoint x="380" y="260" as="sourcePoint" />
            <mxPoint x="430" y="210" as="targetPoint" />
          </mxGeometry>
        </mxCell>
        <mxCell id="ev-j7c1m02h-P1FA38KH-16" value="Custom" style="ellipse;shape=doubleEllipse;whiteSpace=wrap;html=1;" vertex="1" parent="1">
          <mxGeometry x="546" y="200" width="100" height="60" as="geometry" />
        </mxCell>
        <mxCell id="ev-j7c1m02h-P1FA38KH-17" value="Dono" style="ellipse;shape=doubleEllipse;whiteSpace=wrap;html=1;" vertex="1" parent="1">
          <mxGeometry x="510" y="70" width="100" height="60" as="geometry" />
        </mxCell>
        <mxCell id="ev-j7c1m02h-P1FA38KH-18" value="Matricula ?" style="ellipse;whiteSpace=wrap;html=1;" vertex="1" parent="1">
          <mxGeometry x="310" y="20" width="80" height="50" as="geometry" />
        </mxCell>
        <mxCell id="ev-j7c1m02h-P1FA38KH-19" value="Motor" style="ellipse;whiteSpace=wrap;html=1;" vertex="1" parent="1">
          <mxGeometry x="500" y="10" width="66" height="40" as="geometry" />
        </mxCell>
        <mxCell id="ev-j7c1m02h-P1FA38KH-20" value="Cv" style="ellipse;whiteSpace=wrap;html=1;" vertex="1" parent="1">
          <mxGeometry x="534" y="-40" width="56" height="30" as="geometry" />
        </mxCell>
        <mxCell id="ev-j7c1m02h-P1FA38KH-21" value="Cilindrada" style="ellipse;whiteSpace=wrap;html=1;" vertex="1" parent="1">
          <mxGeometry x="590" y="-30" width="60" height="40" as="geometry" />
        </mxCell>
        <mxCell id="ev-j7c1m02h-P1FA38KH-23" value="Binario" style="ellipse;whiteSpace=wrap;html=1;" vertex="1" parent="1">
          <mxGeometry x="602" y="20" width="56" height="30" as="geometry" />
        </mxCell>
        <mxCell id="ev-j7c1m02h-P1FA38KH-24" value="Turbo ?" style="ellipse;whiteSpace=wrap;html=1;" vertex="1" parent="1">
          <mxGeometry x="624" y="60" width="56" height="30" as="geometry" />
        </mxCell>
        <mxCell id="ev-j7c1m02h-P1FA38KH-25" value="Nome" style="ellipse;whiteSpace=wrap;html=1;" vertex="1" parent="1">
          <mxGeometry x="624" y="100" width="56" height="30" as="geometry" />
        </mxCell>
        <mxCell id="ev-j7c1m02h-P1FA38KH-26" value="Nif" style="ellipse;whiteSpace=wrap;html=1;" vertex="1" parent="1">
          <mxGeometry x="580" y="140" width="56" height="30" as="geometry" />
        </mxCell>
        <mxCell id="ev-j7c1m02h-P1FA38KH-27" value="" style="endArrow=none;html=1;rounded=0;entryX=0;entryY=1;entryDx=0;entryDy=0;exitX=0.758;exitY=0.25;exitDx=0;exitDy=0;exitPerimeter=0;" edge="1" parent="1" source="ev-j7c1m02h-P1FA38KH-19" target="ev-j7c1m02h-P1FA38KH-20">
          <mxGeometry width="50" height="50" relative="1" as="geometry">
            <mxPoint x="530" y="30" as="sourcePoint" />
            <mxPoint x="580" y="-20" as="targetPoint" />
          </mxGeometry>
        </mxCell>
        <mxCell id="ev-j7c1m02h-P1FA38KH-28" value="" style="endArrow=none;html=1;rounded=0;exitX=0.25;exitY=0;exitDx=0;exitDy=0;entryX=0.675;entryY=0.94;entryDx=0;entryDy=0;entryPerimeter=0;" edge="1" parent="1" source="ev-j7c1m02h-P1FA38KH-1" target="ev-j7c1m02h-P1FA38KH-18">
          <mxGeometry width="50" height="50" relative="1" as="geometry">
            <mxPoint x="330" y="110" as="sourcePoint" />
            <mxPoint x="380" y="60" as="targetPoint" />
          </mxGeometry>
        </mxCell>
        <mxCell id="ev-j7c1m02h-P1FA38KH-29" value="" style="endArrow=none;html=1;rounded=0;exitX=0.5;exitY=0;exitDx=0;exitDy=0;entryX=0;entryY=0.5;entryDx=0;entryDy=0;" edge="1" parent="1" source="ev-j7c1m02h-P1FA38KH-1" target="ev-j7c1m02h-P1FA38KH-19">
          <mxGeometry width="50" height="50" relative="1" as="geometry">
            <mxPoint x="420" y="140" as="sourcePoint" />
            <mxPoint x="470" y="90" as="targetPoint" />
          </mxGeometry>
        </mxCell>
        <mxCell id="ev-j7c1m02h-P1FA38KH-30" value="" style="endArrow=none;html=1;rounded=0;entryX=0;entryY=1;entryDx=0;entryDy=0;exitX=1;exitY=0.5;exitDx=0;exitDy=0;" edge="1" parent="1" source="ev-j7c1m02h-P1FA38KH-1" target="ev-j7c1m02h-P1FA38KH-17">
          <mxGeometry width="50" height="50" relative="1" as="geometry">
            <mxPoint x="480" y="170" as="sourcePoint" />
            <mxPoint x="520" y="110" as="targetPoint" />
          </mxGeometry>
        </mxCell>
        <mxCell id="ev-j7c1m02h-P1FA38KH-31" value="Preco ?" style="ellipse;whiteSpace=wrap;html=1;" vertex="1" parent="1">
          <mxGeometry x="616" y="310" width="56" height="30" as="geometry" />
        </mxCell>
        <mxCell id="ev-j7c1m02h-P1FA38KH-32" value="Obs" style="ellipse;whiteSpace=wrap;html=1;" vertex="1" parent="1">
          <mxGeometry x="658" y="260" width="56" height="30" as="geometry" />
        </mxCell>
        <mxCell id="ev-j7c1m02h-P1FA38KH-33" value="Tipo" style="ellipse;whiteSpace=wrap;html=1;" vertex="1" parent="1">
          <mxGeometry x="670" y="220" width="56" height="30" as="geometry" />
        </mxCell>
        <mxCell id="ev-j7c1m02h-P1FA38KH-34" value="Data" style="ellipse;whiteSpace=wrap;html=1;" vertex="1" parent="1">
          <mxGeometry x="658" y="180" width="56" height="30" as="geometry" />
        </mxCell>
        <mxCell id="ev-j7c1m02h-P1FA38KH-35" value="" style="endArrow=none;html=1;rounded=0;entryX=0.67;entryY=0.933;entryDx=0;entryDy=0;entryPerimeter=0;exitX=0.5;exitY=0;exitDx=0;exitDy=0;" edge="1" parent="1" source="ev-j7c1m02h-P1FA38KH-31" target="ev-j7c1m02h-P1FA38KH-16">
          <mxGeometry width="50" height="50" relative="1" as="geometry">
            <mxPoint x="570" y="310" as="sourcePoint" />
            <mxPoint x="620" y="260" as="targetPoint" />
          </mxGeometry>
        </mxCell>
        <mxCell id="ev-j7c1m02h-P1FA38KH-36" value="" style="endArrow=none;html=1;rounded=0;entryX=1;entryY=1;entryDx=0;entryDy=0;exitX=0;exitY=0;exitDx=0;exitDy=0;" edge="1" parent="1" source="ev-j7c1m02h-P1FA38KH-32" target="ev-j7c1m02h-P1FA38KH-16">
          <mxGeometry width="50" height="50" relative="1" as="geometry">
            <mxPoint x="590" y="290" as="sourcePoint" />
            <mxPoint x="640" y="240" as="targetPoint" />
          </mxGeometry>
        </mxCell>
        <mxCell id="ev-j7c1m02h-P1FA38KH-37" value="" style="endArrow=none;html=1;rounded=0;entryX=1;entryY=0.5;entryDx=0;entryDy=0;" edge="1" parent="1" source="ev-j7c1m02h-P1FA38KH-33" target="ev-j7c1m02h-P1FA38KH-16">
          <mxGeometry width="50" height="50" relative="1" as="geometry">
            <mxPoint x="710" y="320" as="sourcePoint" />
            <mxPoint x="760" y="270" as="targetPoint" />
          </mxGeometry>
        </mxCell>
        <mxCell id="ev-j7c1m02h-P1FA38KH-38" value="" style="endArrow=none;html=1;rounded=0;entryX=1;entryY=0.75;entryDx=0;entryDy=0;exitX=0.01;exitY=0.3;exitDx=0;exitDy=0;exitPerimeter=0;" edge="1" parent="1" source="ev-j7c1m02h-P1FA38KH-16" target="ev-j7c1m02h-P1FA38KH-1">
          <mxGeometry width="50" height="50" relative="1" as="geometry">
            <mxPoint x="530" y="210" as="sourcePoint" />
            <mxPoint x="580" y="160" as="targetPoint" />
          </mxGeometry>
        </mxCell>
        <mxCell id="ev-j7c1m02h-P1FA38KH-39" value="" style="endArrow=none;html=1;rounded=0;entryX=0;entryY=0.5;entryDx=0;entryDy=0;exitX=1;exitY=0;exitDx=0;exitDy=0;" edge="1" parent="1" source="ev-j7c1m02h-P1FA38KH-16" target="ev-j7c1m02h-P1FA38KH-34">
          <mxGeometry width="50" height="50" relative="1" as="geometry">
            <mxPoint x="620" y="230" as="sourcePoint" />
            <mxPoint x="670" y="180" as="targetPoint" />
          </mxGeometry>
        </mxCell>
        <mxCell id="ev-j7c1m02h-P1FA38KH-40" value="" style="endArrow=none;html=1;rounded=0;entryX=0;entryY=0.5;entryDx=0;entryDy=0;exitX=1;exitY=0.5;exitDx=0;exitDy=0;" edge="1" parent="1" source="ev-j7c1m02h-P1FA38KH-19" target="ev-j7c1m02h-P1FA38KH-21">
          <mxGeometry width="50" height="50" relative="1" as="geometry">
            <mxPoint x="540" y="70" as="sourcePoint" />
            <mxPoint x="590" y="20" as="targetPoint" />
          </mxGeometry>
        </mxCell>
        <mxCell id="ev-j7c1m02h-P1FA38KH-41" value="" style="endArrow=none;html=1;rounded=0;entryX=0;entryY=0.5;entryDx=0;entryDy=0;exitX=0.985;exitY=0.675;exitDx=0;exitDy=0;exitPerimeter=0;" edge="1" parent="1" source="ev-j7c1m02h-P1FA38KH-19" target="ev-j7c1m02h-P1FA38KH-23">
          <mxGeometry width="50" height="50" relative="1" as="geometry">
            <mxPoint x="560" y="80" as="sourcePoint" />
            <mxPoint x="610" y="30" as="targetPoint" />
          </mxGeometry>
        </mxCell>
        <mxCell id="ev-j7c1m02h-P1FA38KH-42" value="" style="endArrow=none;html=1;rounded=0;entryX=0;entryY=0;entryDx=0;entryDy=0;exitX=0.758;exitY=0.85;exitDx=0;exitDy=0;exitPerimeter=0;" edge="1" parent="1" source="ev-j7c1m02h-P1FA38KH-19" target="ev-j7c1m02h-P1FA38KH-24">
          <mxGeometry width="50" height="50" relative="1" as="geometry">
            <mxPoint x="560" y="90" as="sourcePoint" />
            <mxPoint x="610" y="40" as="targetPoint" />
          </mxGeometry>
        </mxCell>
        <mxCell id="ev-j7c1m02h-P1FA38KH-43" value="" style="endArrow=none;html=1;rounded=0;entryX=0;entryY=0;entryDx=0;entryDy=0;" edge="1" parent="1" source="ev-j7c1m02h-P1FA38KH-17" target="ev-j7c1m02h-P1FA38KH-25">
          <mxGeometry width="50" height="50" relative="1" as="geometry">
            <mxPoint x="580" y="150" as="sourcePoint" />
            <mxPoint x="630" y="100" as="targetPoint" />
          </mxGeometry>
        </mxCell>
        <mxCell id="ev-j7c1m02h-P1FA38KH-44" value="" style="endArrow=none;html=1;rounded=0;entryX=0.68;entryY=0.917;entryDx=0;entryDy=0;entryPerimeter=0;" edge="1" parent="1" source="ev-j7c1m02h-P1FA38KH-26" target="ev-j7c1m02h-P1FA38KH-17">
          <mxGeometry width="50" height="50" relative="1" as="geometry">
            <mxPoint x="509.28932188134524" y="205" as="sourcePoint" />
            <mxPoint x="509.28932188134524" y="155" as="targetPoint" />
          </mxGeometry>
        </mxCell>
      </root>
    </mxGraphModel>
  </diagram>
</mxfile>
